<svg width="124" height="17" viewBox="0 0 124 17" fill="none" xmlns="http://www.w3.org/2000/svg">
<path d="M5.14404 8.02913H2.03955L2.02295 6.31917H4.62939C5.0887 6.31917 5.46501 6.26107 5.7583 6.14486C6.0516 6.02311 6.27018 5.84879 6.41406 5.62191C6.56348 5.38948 6.63818 5.10726 6.63818 4.77523C6.63818 4.39892 6.56624 4.09456 6.42236 3.86214C6.28402 3.62972 6.06543 3.46094 5.7666 3.35579C5.47331 3.25065 5.09424 3.19808 4.62939 3.19808H2.90283V13.3333H0.412598V1.24739H4.62939C5.33219 1.24739 5.96029 1.3138 6.51367 1.44661C7.07259 1.57943 7.54574 1.78141 7.93311 2.05257C8.32048 2.32373 8.61654 2.66683 8.82129 3.08187C9.02604 3.49137 9.12842 3.97835 9.12842 4.5428C9.12842 5.04085 9.01497 5.50016 8.78809 5.92073C8.56673 6.34131 8.21533 6.68441 7.73389 6.95003C7.25798 7.21566 6.63542 7.3623 5.86621 7.38997L5.14404 8.02913ZM5.03613 13.3333H1.35889L2.33008 11.3909H5.03613C5.47331 11.3909 5.83024 11.3218 6.10693 11.1834C6.38363 11.0395 6.58838 10.8459 6.72119 10.6024C6.854 10.3589 6.92041 10.0794 6.92041 9.764C6.92041 9.40983 6.85954 9.1027 6.73779 8.84261C6.62158 8.58252 6.43343 8.3833 6.17334 8.24495C5.91325 8.10107 5.57015 8.02913 5.14404 8.02913H2.74512L2.76172 6.31917H5.75L6.32275 6.99154C7.05876 6.98047 7.65088 7.11051 8.09912 7.38167C8.5529 7.6473 8.88216 7.99316 9.08691 8.41927C9.2972 8.84538 9.40234 9.30192 9.40234 9.7889C9.40234 10.5636 9.23356 11.2166 8.896 11.7479C8.55843 12.2736 8.06315 12.6693 7.41016 12.9349C6.7627 13.2005 5.97135 13.3333 5.03613 13.3333ZM10.7388 8.93392V8.7596C10.7388 8.10107 10.8328 7.49512 11.021 6.94173C11.2091 6.38281 11.4831 5.8986 11.8428 5.48909C12.2025 5.07959 12.6452 4.76139 13.1709 4.5345C13.6966 4.30208 14.2998 4.18587 14.9805 4.18587C15.6611 4.18587 16.2671 4.30208 16.7983 4.5345C17.3296 4.76139 17.7751 5.07959 18.1348 5.48909C18.5 5.8986 18.7767 6.38281 18.9648 6.94173C19.153 7.49512 19.2471 8.10107 19.2471 8.7596V8.93392C19.2471 9.58691 19.153 10.1929 18.9648 10.7518C18.7767 11.3052 18.5 11.7894 18.1348 12.2044C17.7751 12.6139 17.3324 12.9321 16.8066 13.159C16.2809 13.3859 15.6777 13.4993 14.9971 13.4993C14.3164 13.4993 13.7104 13.3859 13.1792 13.159C12.6535 12.9321 12.208 12.6139 11.8428 12.2044C11.4831 11.7894 11.2091 11.3052 11.021 10.7518C10.8328 10.1929 10.7388 9.58691 10.7388 8.93392ZM13.1294 8.7596V8.93392C13.1294 9.31022 13.1626 9.66162 13.229 9.98812C13.2954 10.3146 13.4006 10.6024 13.5444 10.8514C13.6938 11.0949 13.8875 11.2858 14.1255 11.4242C14.3634 11.5625 14.654 11.6317 14.9971 11.6317C15.3291 11.6317 15.6141 11.5625 15.8521 11.4242C16.09 11.2858 16.2809 11.0949 16.4248 10.8514C16.5687 10.6024 16.6738 10.3146 16.7402 9.98812C16.8122 9.66162 16.8481 9.31022 16.8481 8.93392V8.7596C16.8481 8.39437 16.8122 8.05127 16.7402 7.7303C16.6738 7.40381 16.5659 7.11605 16.4165 6.86702C16.2726 6.61247 16.0817 6.41325 15.8438 6.26937C15.6058 6.12549 15.318 6.05355 14.9805 6.05355C14.6429 6.05355 14.3551 6.12549 14.1172 6.26937C13.8848 6.41325 13.6938 6.61247 13.5444 6.86702C13.4006 7.11605 13.2954 7.40381 13.229 7.7303C13.1626 8.05127 13.1294 8.39437 13.1294 8.7596ZM20.3345 8.93392V8.7596C20.3345 8.10107 20.4285 7.49512 20.6167 6.94173C20.8049 6.38281 21.0788 5.8986 21.4385 5.48909C21.7982 5.07959 22.2409 4.76139 22.7666 4.5345C23.2923 4.30208 23.8955 4.18587 24.5762 4.18587C25.2568 4.18587 25.8628 4.30208 26.394 4.5345C26.9253 4.76139 27.3708 5.07959 27.7305 5.48909C28.0957 5.8986 28.3724 6.38281 28.5605 6.94173C28.7487 7.49512 28.8428 8.10107 28.8428 8.7596V8.93392C28.8428 9.58691 28.7487 10.1929 28.5605 10.7518C28.3724 11.3052 28.0957 11.7894 27.7305 12.2044C27.3708 12.6139 26.9281 12.9321 26.4023 13.159C25.8766 13.3859 25.2734 13.4993 24.5928 13.4993C23.9121 13.4993 23.3062 13.3859 22.7749 13.159C22.2492 12.9321 21.8037 12.6139 21.4385 12.2044C21.0788 11.7894 20.8049 11.3052 20.6167 10.7518C20.4285 10.1929 20.3345 9.58691 20.3345 8.93392ZM22.7251 8.7596V8.93392C22.7251 9.31022 22.7583 9.66162 22.8247 9.98812C22.8911 10.3146 22.9963 10.6024 23.1401 10.8514C23.2896 11.0949 23.4832 11.2858 23.7212 11.4242C23.9591 11.5625 24.2497 11.6317 24.5928 11.6317C24.9248 11.6317 25.2098 11.5625 25.4478 11.4242C25.6857 11.2858 25.8766 11.0949 26.0205 10.8514C26.1644 10.6024 26.2695 10.3146 26.3359 9.98812C26.4079 9.66162 26.4438 9.31022 26.4438 8.93392V8.7596C26.4438 8.39437 26.4079 8.05127 26.3359 7.7303C26.2695 7.40381 26.1616 7.11605 26.0122 6.86702C25.8683 6.61247 25.6774 6.41325 25.4395 6.26937C25.2015 6.12549 24.9137 6.05355 24.5762 6.05355C24.2386 6.05355 23.9508 6.12549 23.7129 6.26937C23.4805 6.41325 23.2896 6.61247 23.1401 6.86702C22.9963 7.11605 22.8911 7.40381 22.8247 7.7303C22.7583 8.05127 22.7251 8.39437 22.7251 8.7596ZM32.7026 0.575031V13.3333H30.312V0.575031H32.7026ZM38.3638 4.35189L34.4624 8.80111L32.3706 10.9178L31.499 9.19124L33.1592 7.08284L35.4917 4.35189H38.3638ZM35.8818 13.3333L33.2256 9.18294L34.8774 7.73861L38.6377 13.3333H35.8818ZM42.0576 12.3206L44.4399 4.35189H47.0049L43.394 14.6864C43.3166 14.9132 43.2114 15.1567 43.0786 15.4168C42.9513 15.6769 42.777 15.9232 42.5557 16.1556C42.3398 16.3936 42.0659 16.5872 41.7339 16.7367C41.4074 16.8861 41.0062 16.9608 40.5303 16.9608C40.3034 16.9608 40.118 16.9469 39.9741 16.9193C39.8302 16.8916 39.6587 16.8529 39.4595 16.8031V15.0516C39.5203 15.0516 39.584 15.0516 39.6504 15.0516C39.7168 15.0571 39.7804 15.0599 39.8413 15.0599C40.1567 15.0599 40.4141 15.0239 40.6133 14.952C40.8125 14.88 40.973 14.7694 41.0947 14.62C41.2165 14.4761 41.3133 14.2879 41.3853 14.0555L42.0576 12.3206ZM41.0615 4.35189L43.0122 10.8597L43.3525 13.3914L41.7256 13.5658L38.4966 4.35189H41.0615ZM47.4448 8.93392V8.7596C47.4448 8.10107 47.5389 7.49512 47.7271 6.94173C47.9152 6.38281 48.1891 5.8986 48.5488 5.48909C48.9085 5.07959 49.3512 4.76139 49.877 4.5345C50.4027 4.30208 51.0059 4.18587 51.6865 4.18587C52.3672 4.18587 52.9731 4.30208 53.5044 4.5345C54.0356 4.76139 54.4811 5.07959 54.8408 5.48909C55.2061 5.8986 55.4827 6.38281 55.6709 6.94173C55.859 7.49512 55.9531 8.10107 55.9531 8.7596V8.93392C55.9531 9.58691 55.859 10.1929 55.6709 10.7518C55.4827 11.3052 55.2061 11.7894 54.8408 12.2044C54.4811 12.6139 54.0384 12.9321 53.5127 13.159C52.987 13.3859 52.3838 13.4993 51.7031 13.4993C51.0225 13.4993 50.4165 13.3859 49.8853 13.159C49.3595 12.9321 48.9141 12.6139 48.5488 12.2044C48.1891 11.7894 47.9152 11.3052 47.7271 10.7518C47.5389 10.1929 47.4448 9.58691 47.4448 8.93392ZM49.8354 8.7596V8.93392C49.8354 9.31022 49.8687 9.66162 49.9351 9.98812C50.0015 10.3146 50.1066 10.6024 50.2505 10.8514C50.3999 11.0949 50.5936 11.2858 50.8315 11.4242C51.0695 11.5625 51.36 11.6317 51.7031 11.6317C52.0352 11.6317 52.3201 11.5625 52.5581 11.4242C52.7961 11.2858 52.987 11.0949 53.1309 10.8514C53.2747 10.6024 53.3799 10.3146 53.4463 9.98812C53.5182 9.66162 53.5542 9.31022 53.5542 8.93392V8.7596C53.5542 8.39437 53.5182 8.05127 53.4463 7.7303C53.3799 7.40381 53.272 7.11605 53.1226 6.86702C52.9787 6.61247 52.7878 6.41325 52.5498 6.26937C52.3118 6.12549 52.0241 6.05355 51.6865 6.05355C51.349 6.05355 51.0612 6.12549 50.8232 6.26937C50.5908 6.41325 50.3999 6.61247 50.2505 6.86702C50.1066 7.11605 50.0015 7.40381 49.9351 7.7303C49.8687 8.05127 49.8354 8.39437 49.8354 8.7596ZM62.7349 11.1834V4.35189H65.1255V13.3333H62.876L62.7349 11.1834ZM63.0005 9.34066L63.7061 9.32405C63.7061 9.92171 63.6369 10.4779 63.4985 10.9925C63.3602 11.5016 63.1527 11.9443 62.876 12.3206C62.5993 12.6914 62.2507 12.9819 61.8301 13.1922C61.4095 13.397 60.9142 13.4993 60.3442 13.4993C59.9071 13.4993 59.5031 13.4385 59.1323 13.3167C58.7671 13.1895 58.4517 12.993 58.186 12.7274C57.9259 12.4562 57.7212 12.1104 57.5718 11.6898C57.4279 11.2637 57.356 10.7518 57.356 10.1541V4.35189H59.7466V10.1707C59.7466 10.4364 59.777 10.6605 59.8379 10.8431C59.9043 11.0257 59.9956 11.1751 60.1118 11.2913C60.228 11.4076 60.3636 11.4906 60.5186 11.5404C60.679 11.5902 60.8561 11.6151 61.0498 11.6151C61.5423 11.6151 61.9297 11.5155 62.2119 11.3162C62.4997 11.117 62.7017 10.8459 62.8179 10.5028C62.9396 10.1541 63.0005 9.76676 63.0005 9.34066ZM69.3423 6.31087V13.3333H66.9517V4.35189H69.2012L69.3423 6.31087ZM72.0483 4.29378L72.0068 6.51009C71.8906 6.49349 71.7495 6.47965 71.5835 6.46859C71.423 6.45198 71.2764 6.44368 71.1436 6.44368C70.806 6.44368 70.5127 6.48795 70.2637 6.5765C70.0202 6.6595 69.8154 6.78402 69.6494 6.95003C69.4889 7.11605 69.3672 7.31803 69.2842 7.55599C69.2067 7.79394 69.1624 8.0651 69.1514 8.36946L68.6699 8.22005C68.6699 7.639 68.728 7.10498 68.8442 6.618C68.9604 6.12549 69.1292 5.69661 69.3506 5.33138C69.5775 4.96614 69.8542 4.68392 70.1807 4.4847C70.5072 4.28548 70.8807 4.18587 71.3013 4.18587C71.4341 4.18587 71.5697 4.19694 71.708 4.21907C71.8464 4.23568 71.9598 4.26058 72.0483 4.29378ZM77.9917 4.35189V6.04525H72.7622V4.35189H77.9917ZM74.0571 2.13558H76.4478V10.6273C76.4478 10.8874 76.481 11.0866 76.5474 11.2249C76.6193 11.3633 76.7244 11.4601 76.8628 11.5155C77.0011 11.5653 77.1755 11.5902 77.3857 11.5902C77.5352 11.5902 77.668 11.5846 77.7842 11.5736C77.9059 11.557 78.0083 11.5404 78.0913 11.5238L78.0996 13.2835C77.8949 13.3499 77.6735 13.4025 77.4355 13.4412C77.1976 13.48 76.9347 13.4993 76.647 13.4993C76.1213 13.4993 75.6619 13.4136 75.269 13.242C74.8817 13.0649 74.5828 12.7827 74.3726 12.3953C74.1623 12.008 74.0571 11.4989 74.0571 10.868V2.13558ZM81.8765 4.35189V13.3333H79.4775V4.35189H81.8765ZM79.3281 2.01107C79.3281 1.66243 79.4499 1.37467 79.6934 1.14779C79.9368 0.920897 80.2633 0.807453 80.6729 0.807453C81.0768 0.807453 81.4006 0.920897 81.644 1.14779C81.8931 1.37467 82.0176 1.66243 82.0176 2.01107C82.0176 2.3597 81.8931 2.64746 81.644 2.87435C81.4006 3.10124 81.0768 3.21468 80.6729 3.21468C80.2633 3.21468 79.9368 3.10124 79.6934 2.87435C79.4499 2.64746 79.3281 2.3597 79.3281 2.01107ZM87.5625 11.6317C87.8558 11.6317 88.1159 11.5763 88.3428 11.4657C88.5697 11.3494 88.7467 11.189 88.874 10.9842C89.0068 10.7739 89.076 10.5277 89.0815 10.2454H91.3311C91.3255 10.8763 91.1567 11.438 90.8247 11.9305C90.4927 12.4175 90.0472 12.8021 89.4883 13.0843C88.9294 13.361 88.304 13.4993 87.6123 13.4993C86.915 13.4993 86.3063 13.3831 85.7861 13.1507C85.2715 12.9183 84.8426 12.5973 84.4995 12.1878C84.1564 11.7728 83.8991 11.2913 83.7275 10.7435C83.556 10.1901 83.4702 9.59798 83.4702 8.96712V8.7264C83.4702 8.09001 83.556 7.49788 83.7275 6.95003C83.8991 6.39665 84.1564 5.9152 84.4995 5.5057C84.8426 5.09066 85.2715 4.76693 85.7861 4.5345C86.3008 4.30208 86.904 4.18587 87.5957 4.18587C88.3317 4.18587 88.9764 4.32698 89.5298 4.60921C90.0887 4.89144 90.5259 5.29541 90.8413 5.82113C91.1623 6.34131 91.3255 6.95833 91.3311 7.6722H89.0815C89.076 7.37337 89.0124 7.10221 88.8906 6.85872C88.7744 6.61523 88.6029 6.42155 88.376 6.27767C88.1546 6.12825 87.8807 6.05355 87.5542 6.05355C87.2056 6.05355 86.9206 6.12825 86.6992 6.27767C86.4779 6.42155 86.3063 6.62077 86.1846 6.87532C86.0628 7.12435 85.9771 7.40934 85.9272 7.7303C85.883 8.04573 85.8608 8.37777 85.8608 8.7264V8.96712C85.8608 9.31575 85.883 9.65055 85.9272 9.97152C85.9715 10.2925 86.0545 10.5775 86.1763 10.8265C86.3035 11.0755 86.4779 11.272 86.6992 11.4159C86.9206 11.5597 87.2083 11.6317 87.5625 11.6317ZM95.1079 0.575031V13.3333H92.7173V0.575031H95.1079ZM100.769 4.35189L96.8677 8.80111L94.7759 10.9178L93.9043 9.19124L95.5645 7.08284L97.897 4.35189H100.769ZM98.2871 13.3333L95.6309 9.18294L97.2827 7.73861L101.043 13.3333H98.2871ZM105.766 13.4993C105.069 13.4993 104.444 13.3887 103.89 13.1673C103.337 12.9404 102.866 12.6278 102.479 12.2293C102.097 11.8309 101.804 11.3688 101.599 10.8431C101.394 10.3118 101.292 9.74739 101.292 9.14974V8.81771C101.292 8.13704 101.389 7.51448 101.583 6.95003C101.776 6.38558 102.053 5.89583 102.413 5.48079C102.778 5.06575 103.221 4.74756 103.741 4.5262C104.261 4.29932 104.847 4.18587 105.5 4.18587C106.137 4.18587 106.701 4.29101 107.194 4.5013C107.686 4.71159 108.099 5.01042 108.431 5.39779C108.768 5.78515 109.023 6.25 109.194 6.79232C109.366 7.3291 109.452 7.92676 109.452 8.58529V9.58138H102.313V7.98763H107.103V7.80501C107.103 7.47298 107.042 7.17692 106.92 6.91683C106.804 6.6512 106.627 6.44092 106.389 6.28597C106.151 6.13102 105.846 6.05355 105.476 6.05355C105.16 6.05355 104.889 6.12272 104.662 6.26107C104.435 6.39941 104.25 6.5931 104.106 6.84212C103.968 7.09114 103.862 7.38444 103.791 7.722C103.724 8.05404 103.691 8.41927 103.691 8.81771V9.14974C103.691 9.50944 103.741 9.84147 103.84 10.1458C103.945 10.4502 104.092 10.7131 104.28 10.9344C104.474 11.1558 104.706 11.3273 104.978 11.4491C105.254 11.5708 105.567 11.6317 105.916 11.6317C106.347 11.6317 106.748 11.5487 107.119 11.3826C107.495 11.2111 107.819 10.9538 108.09 10.6107L109.252 11.8724C109.064 12.1436 108.807 12.4036 108.48 12.6527C108.16 12.9017 107.772 13.1064 107.318 13.2669C106.865 13.4219 106.347 13.4993 105.766 13.4993ZM115.212 4.35189V6.04525H109.983V4.35189H115.212ZM111.278 2.13558H113.668V10.6273C113.668 10.8874 113.702 11.0866 113.768 11.2249C113.84 11.3633 113.945 11.4601 114.083 11.5155C114.222 11.5653 114.396 11.5902 114.606 11.5902C114.756 11.5902 114.889 11.5846 115.005 11.5736C115.127 11.557 115.229 11.5404 115.312 11.5238L115.32 13.2835C115.116 13.3499 114.894 13.4025 114.656 13.4412C114.418 13.48 114.155 13.4993 113.868 13.4993C113.342 13.4993 112.883 13.4136 112.49 13.242C112.102 13.0649 111.804 12.7827 111.593 12.3953C111.383 12.008 111.278 11.4989 111.278 10.868V2.13558ZM121.43 10.8514C121.43 10.6798 121.38 10.5249 121.28 10.3866C121.181 10.2482 120.995 10.1209 120.724 10.0047C120.458 9.88297 120.074 9.7723 119.57 9.67269C119.117 9.57308 118.693 9.44857 118.3 9.29915C117.913 9.1442 117.575 8.95882 117.288 8.743C117.005 8.52718 116.784 8.27262 116.624 7.97933C116.463 7.6805 116.383 7.34017 116.383 6.95833C116.383 6.58203 116.463 6.22786 116.624 5.89583C116.79 5.5638 117.025 5.27051 117.329 5.01595C117.639 4.75586 118.015 4.55387 118.458 4.40999C118.906 4.26058 119.41 4.18587 119.969 4.18587C120.749 4.18587 121.419 4.31038 121.978 4.55941C122.542 4.80843 122.974 5.15153 123.272 5.5887C123.577 6.02034 123.729 6.51286 123.729 7.06624H121.338C121.338 6.83382 121.289 6.6263 121.189 6.44368C121.095 6.25553 120.945 6.10889 120.741 6.00374C120.542 5.89307 120.281 5.83773 119.96 5.83773C119.695 5.83773 119.465 5.88476 119.271 5.97884C119.078 6.06738 118.928 6.18913 118.823 6.34407C118.724 6.49349 118.674 6.6595 118.674 6.84212C118.674 6.98047 118.701 7.10498 118.757 7.21566C118.818 7.3208 118.915 7.41764 119.047 7.50618C119.18 7.59473 119.352 7.67773 119.562 7.75521C119.778 7.82715 120.043 7.89355 120.359 7.95443C121.006 8.08724 121.585 8.26155 122.094 8.47738C122.603 8.68766 123.007 8.97542 123.306 9.34066C123.604 9.70036 123.754 10.1735 123.754 10.7601C123.754 11.1585 123.665 11.5238 123.488 11.8558C123.311 12.1878 123.057 12.4784 122.725 12.7274C122.393 12.9709 121.994 13.1618 121.529 13.3001C121.07 13.4329 120.553 13.4993 119.977 13.4993C119.141 13.4993 118.433 13.3499 117.852 13.0511C117.277 12.7523 116.839 12.3732 116.541 11.9139C116.247 11.4491 116.101 10.9731 116.101 10.4862H118.367C118.378 10.8127 118.461 11.0755 118.616 11.2747C118.776 11.474 118.978 11.6178 119.222 11.7064C119.471 11.7949 119.739 11.8392 120.027 11.8392C120.337 11.8392 120.594 11.7977 120.799 11.7147C121.004 11.6261 121.159 11.5099 121.264 11.366C121.374 11.2166 121.43 11.0451 121.43 10.8514Z" fill="white"/>
</svg>
